name Walk2.mot
datacolumns 19
datarows 25
range 1.36500000 1.48500000
endheader

                time	   L_ground_force_vx	   L_ground_force_vy	   L_ground_force_vz	   L_ground_force_px	   L_ground_force_py	   L_ground_force_pz	   R_ground_force_vx	   R_ground_force_vy	   R_ground_force_vz	   R_ground_force_px	   R_ground_force_py	   R_ground_force_pz	   L_ground_torque_x	   L_ground_torque_y	   L_ground_torque_z	   R_ground_torque_x	   R_ground_torque_y	   R_ground_torque_z	
          1.36500000	         22.64224657	        639.54442924	         40.48053763	         -0.11555588	          0.00000000	         -0.06544054	         -0.14332437	          0.68390948	         -0.00301162	          0.00044840	          0.00000000	          0.00009763	          0.00000000	         -1.35633176	          0.00000000	          0.00000000	         -0.00130170	          0.00000000	
          1.37000000	         24.00007286	        646.61428390	         42.15576042	         -0.11169690	          0.00000000	         -0.06598926	         -0.14152597	          0.67544291	         -0.00278544	          0.00028252	          0.00000000	          0.00006156	          0.00000000	         -1.26314873	          0.00000000	          0.00000000	         -0.00124629	          0.00000000	
          1.37500000	         25.50298269	        654.02817453	         43.86112942	         -0.10797384	          0.00000000	         -0.06653410	         -0.12126745	          0.57893924	         -0.00208921	         -0.00001099	          0.00000000	         -0.00000227	          0.00000000	         -1.16839661	          0.00000000	          0.00000000	         -0.00100618	          0.00000000	
          1.38000000	         27.21258492	        661.89812973	         45.58367898	         -0.10442739	          0.00000000	         -0.06706463	         -0.07472105	          0.35705390	         -0.00074586	         -0.00046734	          0.00000000	         -0.00010153	          0.00000000	         -1.07351765	          0.00000000	          0.00000000	         -0.00050768	          0.00000000	
          1.38500000	         29.19494754	        670.29749004	         47.31070476	         -0.10109506	          0.00000000	         -0.06756946	          0.00707767	         -0.03298436	          0.00144091	         -0.00112132	          0.00000000	         -0.00024380	          0.00000000	         -0.97938029	          0.00000000	          0.00000000	          0.00033230	          0.00000000	
          1.39000000	         31.51456407	        679.25897370	         49.02555471	         -0.09800948	          0.00000000	         -0.06803685	          0.13376005	         -0.63713422	          0.00467322	         -0.00200283	          0.00000000	         -0.00043558	          0.00000000	         -0.88692716	          0.00000000	          0.00000000	          0.00160116	          0.00000000	
          1.39500000	         34.22858770	        688.77527758	         50.70336651	         -0.09519717	          0.00000000	         -0.06845573	          0.31480962	         -1.50065670	          0.00913727	         -0.00313044	          0.00000000	         -0.00068091	          0.00000000	         -0.79754933	          0.00000000	          0.00000000	          0.00338232	          0.00000000	
          1.40000000	         37.38182863	        698.79959056	         52.30778390	         -0.09267662	          0.00000000	         -0.06881683	          0.55830979	         -2.66214304	          0.01497153	         -0.00450274	          0.00000000	         -0.00097951	          0.00000000	         -0.71340938	          0.00000000	          0.00000000	          0.00574270	          0.00000000	
          1.40500000	         41.00288164	        709.24493724	         53.78905678	         -0.09045613	          0.00000000	         -0.06911384	          0.86916372	         -4.14502427	          0.02222296	         -0.00608736	          0.00000000	         -0.00132433	          0.00000000	         -0.63775534	          0.00000000	          0.00000000	          0.00871518	          0.00000000	
          1.41000000	         45.10053492	        719.98578175	         55.08424404	         -0.08853261	          0.00000000	         -0.06934217	          1.24671075	         -5.94620129	          0.03078997	         -0.00780764	          0.00000000	         -0.00169871	          0.00000000	         -0.57523418	          0.00000000	          0.00000000	          0.01227559	          0.00000000	
          1.41500000	         49.65987058	        730.86040363	         56.12094563	         -0.08689060	          0.00000000	         -0.06949739	          1.68169549	         -8.02158660	          0.04035193	         -0.00952731	          0.00000000	         -0.00207302	          0.00000000	         -0.53218772	          0.00000000	          0.00000000	          0.01631369	          0.00000000	
          1.42000000	         54.63761667	        741.67658960	         56.83191227	         -0.08550301	          0.00000000	         -0.06957654	          2.15260158	        -10.26861346	          0.05028613	         -0.01103395	          0.00000000	         -0.00240104	          0.00000000	         -0.51507846	          0.00000000	          0.00000000	          0.02059869	          0.00000000	
          1.42500000	         59.96636587	        752.22257781	         57.17975547	         -0.08433421	          0.00000000	         -0.06958102	          2.62144676	        -12.50617319	          0.05957562	         -0.01202256	          0.00000000	         -0.00261644	          0.00000000	         -0.52743737	          0.00000000	          0.00000000	          0.02474024	          0.00000000	
          1.43000000	         65.57582550	        762.27715114	         57.15796175	         -0.08334459	          0.00000000	         -0.06951648	          3.02925644	        -14.45301609	          0.06671412	         -0.01208148	          0.00000000	         -0.00262965	          0.00000000	         -0.56927766	          0.00000000	          0.00000000	          0.02814731	          0.00000000	
          1.43500000	         71.40442168	        771.61618734	         56.78037059	         -0.08249515	          0.00000000	         -0.06938998	          3.29159418	        -15.70642068	          0.06961803	         -0.01068336	          0.00000000	         -0.00232593	          0.00000000	         -0.63763254	          0.00000000	          0.00000000	          0.02998888	          0.00000000	
          1.44000000	         77.39811516	        780.01165744	         56.07680425	         -0.08174976	          0.00000000	         -0.06920871	          3.29473235	        -15.72391166	          0.06556047	         -0.00718560	          0.00000000	         -0.00156547	          0.00000000	         -0.72677161	          0.00000000	          0.00000000	          0.02916211	          0.00000000	
          1.44500000	         83.50993183	        787.22867166	         55.08855516	         -0.08107690	          0.00000000	         -0.06897949	          2.89329294	        -13.81198690	          0.05114774	         -0.00084508	          0.00000000	         -0.00018656	          0.00000000	         -0.82917286	          0.00000000	          0.00000000	          0.02427636	          0.00000000	
          1.45000000	         89.70219228	        793.02400720	         53.86224463	         -0.08045229	          0.00000000	         -0.06870906	          1.91047219	         -9.12716439	          0.02236488	          0.00914641	          0.00000000	          0.00198670	          0.00000000	         -0.93687429	          0.00000000	          0.00000000	          0.01366366	          0.00000000	
          1.45500000	         95.94592783	        797.14490311	         52.44281068	         -0.07985933	          0.00000000	         -0.06840428	          0.14226660	         -0.69611157	         -0.02527676	          0.02359894	          0.00000000	          0.00513062	          0.00000000	         -1.04225089	          0.00000000	          0.00000000	         -0.00457068	          0.00000000	
          1.46000000	        102.21310890	        799.32636469	         50.86738567	         -0.07928677	          0.00000000	         -0.06807127	         -2.63258280	         12.53695124	         -0.09645083	          0.04322551	          0.00000000	          0.00940043	          0.00000000	         -1.13828761	          0.00000000	          0.00000000	         -0.03244125	          0.00000000	
          1.46500000	        108.46652157	        799.29337719	         49.16092038	         -0.07872795	          0.00000000	         -0.06771545	         -6.63495527	         31.62616277	         -0.19554313	          0.06849985	          0.00000000	          0.01489935	          0.00000000	         -1.21898928	          0.00000000	          0.00000000	         -0.07190113	          0.00000000	
          1.47000000	        114.65309904	        796.76355762	         47.33488706	         -0.07817989	          0.00000000	         -0.06734209	        -12.05789738	         57.49309797	         -0.32594969	          0.09946421	          0.00000000	          0.02163674	          0.00000000	         -1.27967368	          0.00000000	          0.00000000	         -0.12456664	          0.00000000	
          1.47500000	        120.70220894	        791.44759357	         45.38887066	         -0.07764211	          0.00000000	         -0.06695623	        -19.02724596	         90.73895848	         -0.48910429	          0.13548266	          0.00000000	          0.02947448	          0.00000000	         -1.31680739	          0.00000000	          0.00000000	         -0.19132960	          0.00000000	
          1.48000000	        126.52417408	        783.05039327	         43.31334103	         -0.07711542	          0.00000000	         -0.06656290	        -27.54851301	        131.39121727	         -0.68320398	          0.17494029	          0.00000000	          0.03806146	          0.00000000	         -1.32787019	          0.00000000	          0.00000000	         -0.27184209	          0.00000000	
          1.48500000	        132.00766829	        771.27598937	         41.09232414	         -0.07660045	          0.00000000	         -0.06616728	        -37.44137044	        178.58565613	         -0.90133973	          0.21500274	          0.00000000	          0.04677943	          0.00000000	         -1.31159541	          0.00000000	          0.00000000	         -0.36392047	          0.00000000	
